#define dcursor30_width 30
#define dcursor30_height 30
static char dcursor30_bits[] = {
   0x00, 0x00, 0x40, 0x00, 0x00, 0x00, 0x40, 0x00, 0x00, 0x00, 0xe0, 0x00,
   0x00, 0x00, 0x50, 0x01, 0x00, 0x00, 0x48, 0x02, 0x00, 0x00, 0x44, 0x04,
   0x00, 0x00, 0x42, 0x08, 0x00, 0x80, 0xff, 0x3f, 0x00, 0x00, 0x42, 0x08,
   0x00, 0x00, 0x44, 0x04, 0x00, 0x00, 0x48, 0x02, 0x00, 0x00, 0x50, 0x01,
   0x00, 0xf8, 0xe1, 0x00, 0x00, 0xf0, 0x41, 0x00, 0x00, 0xe0, 0x41, 0x00,
   0x00, 0xf0, 0x01, 0x00, 0x00, 0xb8, 0x01, 0x00, 0x00, 0x1c, 0x01, 0x00,
   0x00, 0x0e, 0x00, 0x00, 0x20, 0x04, 0x00, 0x00, 0x20, 0x00, 0x00, 0x00,
   0x70, 0x00, 0x00, 0x00, 0xa8, 0x00, 0x00, 0x00, 0x24, 0x01, 0x00, 0x00,
   0xff, 0x07, 0x00, 0x00, 0x24, 0x01, 0x00, 0x00, 0xa8, 0x00, 0x00, 0x00,
   0x70, 0x00, 0x00, 0x00, 0x20, 0x00, 0x00, 0x00, 0x20, 0x00, 0x00, 0x00};
