#define hcursor30_width 30
#define hcursor30_height 30
static char hcursor30_bits[] = {
   0x00, 0x00, 0x00, 0x01, 0x00, 0x00, 0x00, 0x01, 0x00, 0x00, 0x80, 0x03,
   0x00, 0x00, 0x40, 0x05, 0x00, 0x00, 0x20, 0x09, 0x00, 0x00, 0xf8, 0x3f,
   0x00, 0x00, 0x20, 0x09, 0x00, 0x00, 0x40, 0x05, 0x00, 0x00, 0x80, 0x03,
   0x00, 0xc0, 0x0f, 0x01, 0x00, 0x80, 0x0f, 0x01, 0x00, 0x00, 0x0f, 0x00,
   0x00, 0x80, 0x0f, 0x00, 0x00, 0xc0, 0x0d, 0x00, 0x00, 0xe0, 0x08, 0x00,
   0x80, 0x70, 0x00, 0x00, 0x80, 0x20, 0x00, 0x00, 0xc0, 0x01, 0x00, 0x00,
   0xa0, 0x02, 0x00, 0x00, 0x90, 0x04, 0x00, 0x00, 0x88, 0x08, 0x00, 0x00,
   0x84, 0x10, 0x00, 0x00, 0xff, 0x7f, 0x00, 0x00, 0x84, 0x10, 0x00, 0x00,
   0x88, 0x08, 0x00, 0x00, 0x90, 0x04, 0x00, 0x00, 0xa0, 0x02, 0x00, 0x00,
   0xc0, 0x01, 0x00, 0x00, 0x80, 0x00, 0x00, 0x00, 0x80, 0x00, 0x00, 0x00};
