#define paint_width 24
#define paint_height 23
static char paint_bits[] = {
 0x00,0x00,0x60,0x52,0x4a,0xf9,0x00,0x00,0xf8,0x94,0x72,0xfd,0x00,0x88,0x7e,
 0xaa,0x24,0x3f,0x00,0x0a,0x9e,0x92,0x51,0x0c,0xe0,0x20,0x29,0x1f,0x41,0x94,
 0x12,0x82,0x10,0x24,0x04,0x55,0x48,0x08,0x0a,0x92,0x14,0x24,0x28,0x21,0x12,
 0x42,0x02,0x41,0x90,0x84,0x14,0x04,0x41,0x02,0x20,0x22,0xa1,0x8a,0x1c,0x08,
 0x20,0xa0,0x42,0x02,0x04,0x10,0x00,0x91,0x84};
