#define paint30_width 30
#define paint30_height 30
static char paint30_bits[] = {
   0x00, 0x00, 0x00, 0x18, 0x00, 0x00, 0x00, 0x3c, 0x00, 0x00, 0x00, 0x3e,
   0x00, 0x00, 0x00, 0x3f, 0x00, 0x00, 0x80, 0x3f, 0x00, 0x80, 0xc7, 0x1f,
   0x00, 0x40, 0xe8, 0x0f, 0x00, 0x20, 0xf0, 0x07, 0x00, 0x50, 0xe0, 0x03,
   0x00, 0x88, 0xc0, 0x01, 0x00, 0x06, 0x81, 0x00, 0x80, 0x03, 0x02, 0x01,
   0xe0, 0x04, 0x04, 0x02, 0x3f, 0x08, 0x08, 0x02, 0x42, 0x10, 0x10, 0x02,
   0x85, 0x20, 0x20, 0x02, 0x08, 0x41, 0x40, 0x01, 0x15, 0x82, 0x80, 0x00,
   0x20, 0x04, 0x41, 0x00, 0x55, 0x08, 0x22, 0x00, 0x80, 0x10, 0x10, 0x00,
   0x55, 0x21, 0x08, 0x00, 0x00, 0x02, 0x04, 0x00, 0x55, 0x05, 0x02, 0x00,
   0x00, 0x08, 0x01, 0x00, 0x55, 0xf5, 0x00, 0x00, 0x00, 0x00, 0x00, 0x00,
   0x55, 0x15, 0x00, 0x00, 0x00, 0x00, 0x00, 0x00, 0x55, 0x05, 0x00, 0x00};
