#define panleft30_width 15
#define panleft30_height 15
static char panleft30_bits[] = {
   0x00, 0x00, 0x00, 0x00, 0x00, 0x00, 0x40, 0x00, 0x60, 0x00, 0x70, 0x00,
   0xf8, 0x1f, 0xfc, 0x1f, 0xf8, 0x1f, 0x70, 0x00, 0x60, 0x00, 0x40, 0x00,
   0x00, 0x00, 0x00, 0x00, 0x00, 0x00};
