#define panright30_width 15
#define panright30_height 15
static char panright30_bits[] = {
   0x00, 0x00, 0x00, 0x00, 0x00, 0x00, 0x00, 0x01, 0x00, 0x03, 0x00, 0x07,
   0xfc, 0x0f, 0xfc, 0x1f, 0xfc, 0x0f, 0x00, 0x07, 0x00, 0x03, 0x00, 0x01,
   0x00, 0x00, 0x00, 0x00, 0x00, 0x00};
