#define panup30_width 15
#define panup30_height 15
static char panup30_bits[] = {
   0x00, 0x00, 0x00, 0x00, 0x80, 0x00, 0xc0, 0x01, 0xe0, 0x03, 0xf0, 0x07,
   0xf8, 0x0f, 0xc0, 0x01, 0xc0, 0x01, 0xc0, 0x01, 0xc0, 0x01, 0xc0, 0x01,
   0xc0, 0x01, 0x00, 0x00, 0x00, 0x00};
