#define save_width 24
#define save_height 23
static char save_bits[] = {
   0x00, 0x00, 0x00, 0xfc, 0xff, 0x3f, 0x3c, 0x00, 0x24, 0x3c, 0x00, 0x24,
   0x3c, 0x00, 0x3c, 0x3c, 0x00, 0x3c, 0x3c, 0x00, 0x3c, 0x3c, 0x00, 0x3c,
   0x3c, 0x00, 0x3c, 0x3c, 0x00, 0x3c, 0x3c, 0x00, 0x3c, 0x3c, 0x00, 0x3c,
   0xfc, 0xff, 0x3f, 0xfc, 0xff, 0x3f, 0xfc, 0xff, 0x3f, 0xfc, 0xff, 0x3f,
   0xfc, 0x7f, 0x3c, 0xfc, 0x7f, 0x3c, 0xfc, 0x7f, 0x3c, 0xfc, 0x7f, 0x3c,
   0xfc, 0x7f, 0x3c, 0xf8, 0xff, 0x1f, 0x00, 0x00, 0x00};
