#define scale30_width 30
#define scale30_height 30
static char scale30_bits[] = {
   0x00, 0x00, 0x00, 0x00, 0x00, 0x00, 0x00, 0x00, 0x00, 0x00, 0x00, 0x00,
   0x00, 0x00, 0x00, 0x00, 0x00, 0x00, 0x00, 0x00, 0x00, 0x06, 0x00, 0x00,
   0x00, 0x07, 0x00, 0x00, 0x80, 0x07, 0x36, 0x00, 0x00, 0x66, 0x7e, 0x00,
   0x00, 0x66, 0x66, 0x00, 0x00, 0x06, 0x66, 0x00, 0x00, 0x66, 0x66, 0x00,
   0x00, 0x66, 0x66, 0x00, 0x00, 0x06, 0x66, 0x00, 0x00, 0x00, 0x00, 0x00,
   0x00, 0x00, 0x00, 0x00, 0x00, 0x00, 0x00, 0x00, 0x06, 0x00, 0x60, 0x00,
   0x06, 0x00, 0x60, 0x00, 0x06, 0x00, 0x60, 0x00, 0x06, 0x00, 0x60, 0x00,
   0x66, 0x66, 0x66, 0x06, 0x66, 0x66, 0x66, 0x06, 0x66, 0x66, 0x66, 0x06,
   0x66, 0x66, 0x66, 0x06, 0xfe, 0xff, 0xff, 0x1f, 0xfe, 0xff, 0xff, 0x1f,
   0x00, 0x00, 0x00, 0x00, 0x00, 0x00, 0x00, 0x00, 0x00, 0x00, 0x00, 0x00};
