#define where30_width 30
#define where30_height 30
static char where30_bits[] = {
   0x00, 0x00, 0x00, 0x00, 0x00, 0x00, 0x00, 0x00, 0x00, 0x00, 0x00, 0x00,
   0x0c, 0x00, 0x18, 0x07, 0x04, 0x00, 0x90, 0x08, 0x34, 0x26, 0x14, 0x08,
   0x64, 0x63, 0x16, 0x08, 0xc4, 0xc1, 0x13, 0x04, 0xc4, 0x81, 0x11, 0x02,
   0x64, 0x83, 0x11, 0x02, 0x34, 0x96, 0x11, 0x00, 0x04, 0x20, 0x10, 0x00,
   0x0c, 0x20, 0x18, 0x02, 0x00, 0x10, 0x00, 0x00, 0x00, 0x00, 0x00, 0x00,
   0x00, 0x00, 0x00, 0x00, 0x00, 0x40, 0x00, 0x00, 0x00, 0xe0, 0x00, 0x00,
   0x00, 0x71, 0x00, 0x00, 0x00, 0x3b, 0x00, 0x00, 0x00, 0x1f, 0x00, 0x00,
   0x00, 0x0f, 0x00, 0x00, 0x00, 0x1f, 0x00, 0x00, 0x00, 0x3f, 0x00, 0x00,
   0x00, 0x00, 0x00, 0x00, 0x60, 0x00, 0x00, 0x00, 0x60, 0x00, 0x00, 0x00,
   0x00, 0x00, 0x00, 0x00, 0x00, 0x00, 0x00, 0x00, 0x00, 0x00, 0x00, 0x00};
