#define window33_width 30
#define window33_height 30
static char window33_bits[] = {
   0x00, 0x00, 0x00, 0x00, 0x00, 0x00, 0x00, 0x00, 0x00, 0x00, 0x00, 0x00,
   0x00, 0x00, 0x00, 0x00, 0x00, 0x00, 0x0c, 0x00, 0x00, 0x00, 0x98, 0x03,
   0xf0, 0xff, 0xbf, 0x03, 0x10, 0x00, 0x98, 0x03, 0x10, 0x00, 0x0c, 0x00,
   0x10, 0x00, 0x00, 0x01, 0x10, 0x00, 0x80, 0x03, 0x10, 0x00, 0xc0, 0x07,
   0x10, 0x00, 0x40, 0x05, 0x10, 0x00, 0x00, 0x01, 0x10, 0x00, 0x00, 0x01,
   0x10, 0x00, 0x00, 0x01, 0x10, 0x00, 0x00, 0x01, 0x10, 0x00, 0x00, 0x01,
   0x10, 0x00, 0x00, 0x01, 0x10, 0x00, 0x00, 0x01, 0x10, 0x00, 0x00, 0x01,
   0x10, 0x00, 0x00, 0x01, 0x10, 0x00, 0x00, 0x01, 0x38, 0x00, 0x00, 0x01,
   0xf8, 0xff, 0xff, 0x01, 0x38, 0x00, 0x00, 0x00, 0x00, 0x00, 0x00, 0x00,
   0x00, 0x00, 0x00, 0x00, 0x00, 0x00, 0x00, 0x00, 0x00, 0x00, 0x00, 0x00};
